<svg width="492" height="50" viewBox="0 0 492 50" fill="none" xmlns="http://www.w3.org/2000/svg" xmlns:xlink="http://www.w3.org/1999/xlink">
<path d="M21.4871,5.59601h-2.8274L0.807983,44.404h3.049197L20.0457,8.70065L36.2896,44.404h3.0492L21.4871,5.59601Z" transform="translate(183 1)" fill="#0564bd"/>
<path d="M77.9848,5.59601h-2.8275v17.85169h-25.9459v-17.85169h-2.8274v38.80799h2.8274v-18.4615h25.9459v18.4615h2.8275v-38.80799Z" transform="translate(89 0)" fill="#0564bd"/>
<path d="M128.239,44.404h2.772l-.056-38.80799h-2.328L111.274,35.5891L93.9212,5.59601h-2.384v38.80799h2.772v-33.0977L110.553,39.2481h1.386l16.244-28.0526.056,33.2085Z" transform="translate(-88 0)" fill="#0564bd"/>
<path d="M169.601,23.4477h-25.114v2.4948h25.114v-2.4948Zm0-17.85169h-25.114v2.55024h25.114v-2.55024ZM144.487,41.8538v2.5502h25.114v-2.5502h-25.114Z" transform="translate(96 0)" fill="#0564bd"/>
<path d="M488.365,5.59601v38.80799h2.827v-38.80799h-2.827Z" transform="translate(-424 0)" fill="#0564bd"/><path d="" fill="none" stroke="#3f5787" stroke-width="0.984"/>
<path d="M-15.21291,0h30.42582" transform="matrix(.865298 0 0-1 101.650559 7.59601)" fill="none" stroke="#0564bd" stroke-width="3"/>
<path d="M0,-18.903995v37.80799" transform="translate(88.962251 25.500005)" fill="none" stroke="#0564bd" stroke-width="3"/>
<path d="M-15.688313,0h31.376626" transform="matrix(.902819 0 0 1 101.650555 43.404)" fill="none" stroke="#0564bd" stroke-width="3"/>
<path d="M0,-17.903995v35.80799" transform="matrix(-1 0 0 1.127191 292.8215 25.500005)" fill="none" stroke="#0564bd" stroke-width="3"/>
<path d="M-12.30075,0h24.6015" transform="translate(304.12225 44.404)" fill="none" stroke="#0564bd" stroke-width="3"/>

</svg>
